<svg xmlns="http://www.w3.org/2000/svg" xmlns:xlink="http://www.w3.org/1999/xlink" width="239px" height="324px" version="1.1"><defs><linearGradient x1="0%" y1="0%" x2="0%" y2="100%" id="mx-gradient-ffff00-1-ffff00-1-s-0"><stop offset="0%" style="stop-color:#FFFF00"/><stop offset="100%" style="stop-color:#FFFF00"/></linearGradient></defs><g transform="translate(0.5,0.5)"><path d="M 11 307 L 11 247 C 11 238 28 232 51 232 C 73 232 91 238 91 247 L 91 307 C 91 315 73 322 51 322 C 28 322 11 315 11 307 Z" fill="#ff0000" stroke="#000000" stroke-width="2" stroke-miterlimit="10" pointer-events="none"/><path d="M 11 247 C 11 255 28 262 51 262 C 73 262 91 255 91 247" fill="none" stroke="#000000" stroke-width="2" stroke-miterlimit="10" pointer-events="none"/><g fill="#000000" font-family="Helvetica" text-anchor="middle" font-size="12px"><text x="51" y="288">Redis</text></g><path d="M 21 7 C 21 5 22 4 23 3 C 24 2 25 2 26 2 L 94 2 C 96 2 97 2 98 3 C 99 4 99 5 99 7 L 80 56 C 80 58 79 59 78 60 C 77 61 76 61 75 61 L 6 61 C 4 61 3 61 2 60 C 2 59 1 57 2 56 Z" fill="url(#mx-gradient-ffff00-1-ffff00-1-s-0)" stroke="#000000" stroke-width="2" stroke-miterlimit="10" pointer-events="none"/><g fill="#000000" font-family="Helvetica" text-anchor="middle" font-size="12px"><text x="51" y="36">Pingdom</text></g><rect x="5" y="112" width="91" height="80" rx="5" ry="5" fill="#0066cc" stroke="#000000" stroke-width="2" pointer-events="none"/><g fill="#000000" font-family="Helvetica" text-anchor="middle" font-size="12px"><text x="51" y="149">NuPIC monitor</text><text x="51" y="163">(Python)</text></g><rect x="146" y="235" width="90" height="80" rx="5" ry="5" fill="#66b2ff" stroke="#000000" stroke-width="2" pointer-events="none"/><g fill="#000000" font-family="Helvetica" text-anchor="middle" font-size="12px"><text x="191" y="272">RESTful API </text><text x="191" y="286">(Go)</text></g><path d="M 51 62 L 51 105" fill="none" stroke="#000000" stroke-miterlimit="10" pointer-events="none"/><path d="M 51 110 L 47 103 L 51 105 L 54 103 Z" fill="#000000" stroke="#000000" stroke-miterlimit="10" pointer-events="none"/><path d="M 51 192 L 51 225" fill="none" stroke="#000000" stroke-miterlimit="10" pointer-events="none"/><path d="M 51 230 L 47 223 L 51 225 L 54 223 Z" fill="#000000" stroke="#000000" stroke-miterlimit="10" pointer-events="none"/><path d="M 140 276 L 91 276" fill="none" stroke="#000000" stroke-miterlimit="10" pointer-events="none"/><path d="M 145 275 L 138 279 L 140 276 L 138 272 Z" fill="#000000" stroke="#000000" stroke-miterlimit="10" pointer-events="none"/><rect x="146" y="112" width="90" height="80" rx="5" ry="5" fill="#ff9933" stroke="#000000" stroke-width="2" pointer-events="none"/><g fill="#000000" font-family="Helvetica" text-anchor="middle" font-size="12px"><text x="191" y="149">API client</text><text x="191" y="163">(Javascript)</text></g><path d="M 191 235 L 191 198" fill="none" stroke="#000000" stroke-miterlimit="10" pointer-events="none"/><path d="M 191 193 L 195 200 L 191 198 L 188 200 Z" fill="#000000" stroke="#000000" stroke-miterlimit="10" pointer-events="none"/></g></svg>